<!DOCTYPE svg PUBLIC "-//W3C//DTD SVG 20010904//EN" "http://www.w3.org/TR/2001/REC-SVG-20010904/DTD/svg10.dtd">
<svg version="1.0" xmlns="http://www.w3.org/2000/svg" width="1024px" height="1024px" viewBox="0 0 10240 10240" preserveAspectRatio="xMidYMid meet">
<g id="layer101" fill="#ffa19f" stroke="none">
 <path d="M4875 10225 c-5 -2 -75 -9 -155 -15 -192 -15 -388 -38 -495 -60 -89 -18 -329 -70 -365 -79 -412 -107 -839 -274 -1167 -458 -35 -19 -63 -32 -63 -29 0 3 -8 -1 -17 -10 -15 -13 -53 -36 -202 -125 -51 -30 -290 -195 -366 -252 -110 -83 -294 -237 -384 -321 -74 -68 -349 -346 -343 -346 3 0 -53 -65 -95 -108 -18 -18 -31 -34 -30 -36 5 -6 -52 -64 -58 -58 -4 4 -5 2 -3 -3 4 -15 -57 -96 -66 -87 -4 4 -6 2 -4 -3 3 -9 -25 -50 -147 -218 -130 -177 -339 -548 -447 -792 -14 -33 -36 -81 -47 -106 -57 -130 -150 -387 -192 -534 -51 -174 -61 -214 -109 -430 -32 -145 -64 -372 -90 -625 -13 -134 -13 -695 0 -814 6 -50 15 -134 21 -186 19 -168 45 -325 79 -480 5 -19 13 -62 20 -95 30 -152 166 -584 229 -730 5 -11 18 -41 30 -67 12 -26 21 -51 21 -54 0 -8 46 -105 122 -259 72 -148 115 -224 196 -358 23 -37 42 -71 42 -75 0 -4 13 -23 28 -42 15 -19 48 -66 72 -105 46 -72 162 -229 259 -349 31 -38 67 -83 81 -100 13 -17 41 -49 61 -71 20 -22 54 -60 75 -85 55 -63 374 -367 465 -442 158 -130 189 -155 285 -223 53 -38 105 -78 116 -87 10 -10 21 -17 24 -17 3 1 40 -21 82 -49 112 -73 218 -137 337 -203 89 -50 416 -209 429 -209 3 0 28 -9 54 -21 26 -12 56 -25 67 -30 147 -64 547 -190 715 -225 41 -9 91 -19 110 -24 187 -42 315 -61 666 -100 117 -13 691 -13 808 0 50 6 134 15 186 21 155 16 327 43 445 69 224 50 266 61 445 113 144 43 398 135 520 189 25 11 72 32 105 46 118 52 390 194 474 246 22 15 43 26 45 26 7 0 230 143 236 151 3 4 25 19 50 35 25 16 79 54 120 84 41 30 79 54 85 52 5 -2 7 0 3 4 -9 9 72 70 87 66 5 -2 7 -1 3 3 -4 4 23 32 60 63 37 30 84 71 105 91 20 19 37 33 37 30 0 -9 285 275 372 371 99 110 208 241 295 355 75 100 243 342 243 352 0 3 6 14 14 22 11 13 68 108 146 246 192 339 386 839 483 1245 99 413 142 779 142 1215 -1 300 -10 430 -55 765 -15 109 -65 364 -91 460 -46 173 -85 307 -106 370 -29 86 -90 251 -109 295 -7 17 -22 55 -34 85 -37 96 -167 363 -235 485 -25 44 -51 92 -57 108 -7 15 -16 27 -20 27 -4 0 -8 5 -8 11 0 19 -186 295 -306 455 -146 194 -272 341 -451 523 -78 80 -143 150 -143 155 0 5 -3 7 -6 3 -4 -3 -47 31 -98 76 -129 117 -297 248 -516 404 -43 31 -250 163 -255 163 -3 0 -27 14 -54 30 -123 76 -450 239 -581 291 -30 11 -66 26 -80 31 -77 32 -331 123 -385 138 -16 4 -79 22 -140 39 -188 53 -213 59 -420 100 -133 26 -343 55 -525 72 -118 11 -657 22 -675 14z"/>
 </g>

</svg>